<svg width="229" height="40" viewBox="0 0 229 40" fill="none" xmlns="http://www.w3.org/2000/svg">
<g clip-path="url(#clip0_1_2)">
<rect width="229" height="40" fill="white" fill-opacity="0.1"/>
<path d="M39.7199 31V8.6H48.1039C50.0025 8.6 51.6345 8.90933 52.9999 9.528C54.3652 10.1253 55.4105 11 56.1359 12.152C56.8825 13.2827 57.2559 14.6587 57.2559 16.28C57.2559 17.8587 56.8825 19.224 56.1359 20.376C55.4105 21.5067 54.3652 22.3813 52.9999 23C51.6345 23.6187 50.0025 23.928 48.1039 23.928H41.0319L42.0879 22.808V31H39.7199ZM42.0879 23L41.0319 21.848H48.0399C50.2799 21.848 51.9759 21.368 53.1279 20.408C54.3012 19.4267 54.8879 18.0507 54.8879 16.28C54.8879 14.488 54.3012 13.1013 53.1279 12.12C51.9759 11.1387 50.2799 10.648 48.0399 10.648H41.0319L42.0879 9.528V23ZM61.5071 31L71.7471 8.6H74.0831L84.3231 31H81.8271L72.4191 9.976H73.3791L63.9711 31H61.5071ZM65.5391 25.016L66.2431 23.096H79.2671L79.9711 25.016H65.5391ZM96.9566 31.192C95.3566 31.192 93.8313 30.936 92.3806 30.424C90.93 29.8907 89.778 29.1867 88.9246 28.312L90.0446 26.488C90.7486 27.2347 91.7086 27.8533 92.9246 28.344C94.162 28.8347 95.4953 29.08 96.9246 29.08C98.8233 29.08 100.263 28.664 101.245 27.832C102.247 26.9787 102.749 25.8693 102.749 24.504C102.749 23.544 102.514 22.7227 102.045 22.04C101.597 21.336 100.829 20.792 99.7406 20.408C98.6526 20.024 97.1593 19.832 95.2606 19.832H90.4926L91.6446 8.6H103.901V10.648H92.5726L93.7566 9.528L92.7646 18.936L91.5806 17.784H95.7726C98.034 17.784 99.8473 18.0613 101.213 18.616C102.578 19.1707 103.559 19.9493 104.157 20.952C104.775 21.9333 105.085 23.0853 105.085 24.408C105.085 25.6667 104.786 26.8187 104.189 27.864C103.591 28.888 102.695 29.6987 101.501 30.296C100.306 30.8933 98.7913 31.192 96.9566 31.192ZM113.834 31V8.6H115.786L131.242 28.056H130.218V8.6H132.554V31H130.602L115.178 11.544H116.202V31H113.834ZM153.433 31.192C151.748 31.192 150.19 30.9147 148.761 30.36C147.332 29.784 146.094 28.984 145.049 27.96C144.004 26.936 143.182 25.7307 142.585 24.344C142.009 22.9573 141.721 21.4427 141.721 19.8C141.721 18.1573 142.009 16.6427 142.585 15.256C143.182 13.8693 144.004 12.664 145.049 11.64C146.116 10.616 147.364 9.82667 148.793 9.272C150.222 8.696 151.78 8.408 153.465 8.408C155.086 8.408 156.612 8.68533 158.041 9.24C159.47 9.77333 160.676 10.584 161.657 11.672L160.153 13.176C159.236 12.2373 158.222 11.5653 157.113 11.16C156.004 10.7333 154.809 10.52 153.529 10.52C152.185 10.52 150.937 10.7547 149.785 11.224C148.633 11.672 147.63 12.3227 146.777 13.176C145.924 14.008 145.252 14.9893 144.761 16.12C144.292 17.2293 144.057 18.456 144.057 19.8C144.057 21.144 144.292 22.3813 144.761 23.512C145.252 24.6213 145.924 25.6027 146.777 26.456C147.63 27.288 148.633 27.9387 149.785 28.408C150.937 28.856 152.185 29.08 153.529 29.08C154.809 29.08 156.004 28.8667 157.113 28.44C158.222 28.0133 159.236 27.3307 160.153 26.392L161.657 27.896C160.676 28.984 159.47 29.8053 158.041 30.36C156.612 30.9147 155.076 31.192 153.433 31.192ZM186.929 8.6H189.265V31H186.929V8.6ZM172.913 31H170.545V8.6H172.913V31ZM187.153 20.664H172.657V18.584H187.153V20.664Z" fill="black"/>
<path d="M39.7199 31H38.7199V32H39.7199V31ZM39.7199 8.6V7.6H38.7199V8.6H39.7199ZM52.9999 9.528L52.5871 10.4389L52.5991 10.4442L52.9999 9.528ZM56.1359 12.152L55.2896 12.6848L55.2954 12.694L55.3014 12.7031L56.1359 12.152ZM56.1359 20.376L55.2967 19.8321L55.2942 19.836L56.1359 20.376ZM52.9999 23L53.4126 23.9109L53.4126 23.9109L52.9999 23ZM41.0319 23.928L40.3043 23.242L38.7146 24.928H41.0319V23.928ZM42.0879 22.808H43.0879V20.2897L41.3603 22.122L42.0879 22.808ZM42.0879 31V32H43.0879V31H42.0879ZM42.0879 23L41.3507 23.6757L43.0879 25.5708V23H42.0879ZM41.0319 21.848V20.848H38.7586L40.2947 22.5237L41.0319 21.848ZM53.1279 20.408L53.7681 21.1762L53.7694 21.1751L53.1279 20.408ZM53.1279 12.12L52.4794 12.8813L52.4863 12.8871L53.1279 12.12ZM41.0319 10.648L40.3043 9.96199L38.7146 11.648H41.0319V10.648ZM42.0879 9.528H43.0879V7.0097L41.3603 8.84199L42.0879 9.528ZM39.7199 31H40.7199V8.6H39.7199H38.7199V31H39.7199ZM39.7199 8.6V9.6H48.1039V8.6V7.6H39.7199V8.6ZM48.1039 8.6V9.6C49.8969 9.6 51.3812 9.8924 52.5871 10.4389L52.9999 9.528L53.4126 8.61715C51.8879 7.92627 50.1082 7.6 48.1039 7.6V8.6ZM52.9999 9.528L52.5991 10.4442C53.799 10.9692 54.6811 11.7184 55.2896 12.6848L56.1359 12.152L56.9821 11.6192C56.14 10.2816 54.9314 9.28152 53.4007 8.61184L52.9999 9.528ZM56.1359 12.152L55.3014 12.7031C55.9204 13.6404 56.2559 14.8155 56.2559 16.28H57.2559H58.2559C58.2559 14.5018 57.8447 12.9249 56.9703 11.6009L56.1359 12.152ZM57.2559 16.28H56.2559C56.2559 17.6953 55.9234 18.8653 55.2967 19.8321L56.1359 20.376L56.975 20.9199C57.8417 19.5827 58.2559 18.022 58.2559 16.28H57.2559ZM56.1359 20.376L55.2942 19.836C54.6849 20.7859 53.7978 21.5406 52.5871 22.0891L52.9999 23L53.4126 23.9109C54.9327 23.2221 56.1362 22.2275 56.9776 20.916L56.1359 20.376ZM52.9999 23L52.5871 22.0891C51.3812 22.6356 49.8969 22.928 48.1039 22.928V23.928V24.928C50.1082 24.928 51.8879 24.6017 53.4126 23.9109L52.9999 23ZM48.1039 23.928V22.928H41.0319V23.928V24.928H48.1039V23.928ZM41.0319 23.928L41.7595 24.614L42.8155 23.494L42.0879 22.808L41.3603 22.122L40.3043 23.242L41.0319 23.928ZM42.0879 22.808H41.0879V31H42.0879H43.0879V22.808H42.0879ZM42.0879 31V30H39.7199V31V32H42.0879V31ZM42.0879 23L42.825 22.3243L41.769 21.1723L41.0319 21.848L40.2947 22.5237L41.3507 23.6757L42.0879 23ZM41.0319 21.848V22.848H48.0399V21.848V20.848H41.0319V21.848ZM48.0399 21.848V22.848C50.4024 22.848 52.3662 22.3445 53.7681 21.1762L53.1279 20.408L52.4877 19.6398C51.5856 20.3915 50.1574 20.848 48.0399 20.848V21.848ZM53.1279 20.408L53.7694 21.1751C55.207 19.9727 55.8879 18.2948 55.8879 16.28H54.8879H53.8879C53.8879 17.8065 53.3954 18.8806 52.4863 19.6409L53.1279 20.408ZM54.8879 16.28H55.8879C55.8879 14.2483 55.2099 12.5577 53.7694 11.3529L53.1279 12.12L52.4863 12.8871C53.3925 13.645 53.8879 14.7277 53.8879 16.28H54.8879ZM53.1279 12.12L53.7763 11.3588C52.374 10.1641 50.4067 9.648 48.0399 9.648V10.648V11.648C50.153 11.648 51.5778 12.1132 52.4794 12.8812L53.1279 12.12ZM48.0399 10.648V9.648H41.0319V10.648V11.648H48.0399V10.648ZM41.0319 10.648L41.7595 11.334L42.8155 10.214L42.0879 9.528L41.3603 8.84199L40.3043 9.96199L41.0319 10.648ZM42.0879 9.528H41.0879V23H42.0879H43.0879V9.528H42.0879ZM61.5071 31L60.5977 30.5842L59.9504 32H61.5071V31ZM71.7471 8.6V7.6H71.1047L70.8377 8.18424L71.7471 8.6ZM74.0831 8.6L74.9926 8.18424L74.7255 7.6H74.0831V8.6ZM84.3231 31V32H85.8798L85.2326 30.5842L84.3231 31ZM81.8271 31L80.9144 31.4085L81.1791 32H81.8271V31ZM72.4191 9.976V8.976H70.8761L71.5064 10.3845L72.4191 9.976ZM73.3791 9.976L74.2919 10.3845L74.9222 8.976H73.3791V9.976ZM63.9711 31V32H64.6192L64.8839 31.4085L63.9711 31ZM65.5391 25.016L64.6003 24.6717L64.1074 26.016H65.5391V25.016ZM66.2431 23.096V22.096H65.5447L65.3043 22.7517L66.2431 23.096ZM79.2671 23.096L80.206 22.7517L79.9656 22.096H79.2671V23.096ZM79.9711 25.016V26.016H81.4029L80.91 24.6717L79.9711 25.016ZM61.5071 31L62.4166 31.4158L72.6566 9.01576L71.7471 8.6L70.8377 8.18424L60.5977 30.5842L61.5071 31ZM71.7471 8.6V9.6H74.0831V8.6V7.6H71.7471V8.6ZM74.0831 8.6L73.1737 9.01576L83.4137 31.4158L84.3231 31L85.2326 30.5842L74.9926 8.18424L74.0831 8.6ZM84.3231 31V30H81.8271V31V32H84.3231V31ZM81.8271 31L82.7399 30.5915L73.3319 9.56754L72.4191 9.976L71.5064 10.3845L80.9144 31.4085L81.8271 31ZM72.4191 9.976V10.976H73.3791V9.976V8.976H72.4191V9.976ZM73.3791 9.976L72.4664 9.56754L63.0583 30.5915L63.9711 31L64.8839 31.4085L74.2919 10.3845L73.3791 9.976ZM63.9711 31V30H61.5071V31V32H63.9711V31ZM65.5391 25.016L66.478 25.3603L67.182 23.4403L66.2431 23.096L65.3043 22.7517L64.6003 24.6717L65.5391 25.016ZM66.2431 23.096V24.096H79.2671V23.096V22.096H66.2431V23.096ZM79.2671 23.096L78.3283 23.4403L79.0323 25.3603L79.9711 25.016L80.91 24.6717L80.206 22.7517L79.2671 23.096ZM79.9711 25.016V24.016H65.5391V25.016V26.016H79.9711V25.016ZM92.3806 30.424L92.0355 31.3627L92.0478 31.367L92.3806 30.424ZM88.9246 28.312L88.0725 27.7887L87.6648 28.4527L88.2088 29.0103L88.9246 28.312ZM90.0446 26.488L90.7722 25.802L89.876 24.8515L89.1925 25.9647L90.0446 26.488ZM92.9246 28.344L92.5504 29.2714L92.556 29.2736L92.9246 28.344ZM101.245 27.832L101.891 28.5948L101.893 28.5935L101.245 27.832ZM102.045 22.04L101.201 22.5769L101.211 22.5919L101.221 22.6065L102.045 22.04ZM99.7406 20.408L100.073 19.465L100.073 19.465L99.7406 20.408ZM90.4926 19.832L89.4978 19.73L89.3848 20.832H90.4926V19.832ZM91.6446 8.6V7.6H90.7419L90.6498 8.49797L91.6446 8.6ZM103.901 8.6H104.901V7.6H103.901V8.6ZM103.901 10.648V11.648H104.901V10.648H103.901ZM92.5726 10.648L91.8854 9.92153L90.0603 11.648H92.5726V10.648ZM93.7566 9.528L94.7511 9.63286L95.0348 6.94239L93.0694 8.80153L93.7566 9.528ZM92.7646 18.936L92.0673 19.6527L93.5432 21.0887L93.7591 19.0409L92.7646 18.936ZM91.5806 17.784V16.784H89.1189L90.8833 18.5007L91.5806 17.784ZM104.157 20.952L103.298 21.4638L103.304 21.4746L103.311 21.4853L104.157 20.952ZM104.189 27.864L105.052 28.3679L105.057 28.3601L104.189 27.864ZM101.501 30.296L101.053 29.4016L101.053 29.4016L101.501 30.296ZM96.9566 31.192V30.192C95.4654 30.192 94.053 29.9538 92.7134 29.481L92.3806 30.424L92.0478 31.367C93.6096 31.9182 95.2479 32.192 96.9566 32.192V31.192ZM92.3806 30.424L92.7257 29.4854C91.379 28.9903 90.3658 28.3572 89.6404 27.6137L88.9246 28.312L88.2088 29.0103C89.1901 30.0161 90.4809 30.791 92.0356 31.3626L92.3806 30.424ZM88.9246 28.312L89.7768 28.8353L90.8968 27.0113L90.0446 26.488L89.1925 25.9647L88.0725 27.7887L88.9246 28.312ZM90.0446 26.488L89.317 27.174C90.1435 28.0506 91.2365 28.7412 92.5504 29.2714L92.9246 28.344L93.2988 27.4166C92.1808 26.9655 91.3537 26.4187 90.7722 25.802L90.0446 26.488ZM92.9246 28.344L92.556 29.2736C93.9191 29.8141 95.3785 30.08 96.9246 30.08V29.08V28.08C95.6121 28.08 94.4048 27.8552 93.2933 27.4144L92.9246 28.344ZM96.9246 29.08V30.08C98.9507 30.08 100.66 29.6383 101.891 28.5948L101.245 27.832L100.598 27.0692C99.8661 27.6897 98.6959 28.08 96.9246 28.08V29.08ZM101.245 27.832L101.893 28.5935C103.128 27.5423 103.749 26.1501 103.749 24.504H102.749H101.749C101.749 25.5886 101.367 26.415 100.597 27.0705L101.245 27.832ZM102.749 24.504H103.749C103.749 23.3748 103.47 22.3481 102.869 21.4735L102.045 22.04L101.221 22.6065C101.558 23.0972 101.749 23.7132 101.749 24.504H102.749ZM102.045 22.04L102.888 21.5031C102.282 20.5498 101.293 19.8954 100.073 19.465L99.7406 20.408L99.4078 21.351C100.364 21.6886 100.912 22.1222 101.201 22.5769L102.045 22.04ZM99.7406 20.408L100.073 19.465C98.8318 19.0268 97.2093 18.832 95.2606 18.832V19.832V20.832C97.1093 20.832 98.4735 21.0212 99.4078 21.351L99.7406 20.408ZM95.2606 19.832V18.832H90.4926V19.832V20.832H95.2606V19.832ZM90.4926 19.832L91.4874 19.934L92.6394 8.70203L91.6446 8.6L90.6498 8.49797L89.4978 19.73L90.4926 19.832ZM91.6446 8.6V9.6H103.901V8.6V7.6H91.6446V8.6ZM103.901 8.6H102.901V10.648H103.901H104.901V8.6H103.901ZM103.901 10.648V9.648H92.5726V10.648V11.648H103.901V10.648ZM92.5726 10.648L93.2598 11.3745L94.4438 10.2545L93.7566 9.528L93.0694 8.80153L91.8854 9.92153L92.5726 10.648ZM93.7566 9.528L92.7621 9.42314L91.7701 18.8311L92.7646 18.936L93.7591 19.0409L94.7511 9.63286L93.7566 9.528ZM92.7646 18.936L93.462 18.2193L92.278 17.0673L91.5806 17.784L90.8833 18.5007L92.0673 19.6527L92.7646 18.936ZM91.5806 17.784V18.784H95.7726V17.784V16.784H91.5806V17.784ZM95.7726 17.784V18.784C97.9668 18.784 99.6368 19.0552 100.836 19.5425L101.213 18.616L101.589 17.6895C100.058 17.0675 98.1012 16.784 95.7726 16.784V17.784ZM101.213 18.616L100.836 19.5425C102.053 20.037 102.838 20.6925 103.298 21.4638L104.157 20.952L105.016 20.4402C104.281 19.2061 103.102 18.3044 101.589 17.6895L101.213 18.616ZM104.157 20.952L103.311 21.4853C103.815 22.2855 104.085 23.247 104.085 24.408H105.085H106.085C106.085 22.9237 105.735 21.5812 105.003 20.4187L104.157 20.952ZM105.085 24.408H104.085C104.085 25.5009 103.827 26.4806 103.32 27.3679L104.189 27.864L105.057 28.3601C105.745 27.1567 106.085 25.8325 106.085 24.408H105.085ZM104.189 27.864L103.325 27.3601C102.838 28.1955 102.097 28.8798 101.053 29.4016L101.501 30.296L101.948 31.1904C103.294 30.5175 104.345 29.5805 105.052 28.3679L104.189 27.864ZM101.501 30.296L101.053 29.4016C100.04 29.9085 98.6909 30.192 96.9566 30.192V31.192V32.192C98.8917 32.192 100.572 31.8781 101.948 31.1904L101.501 30.296ZM113.834 31H112.834V32H113.834V31ZM113.834 8.6V7.6H112.834V8.6H113.834ZM115.786 8.6L116.569 7.97798L116.268 7.6H115.786V8.6ZM131.242 28.056V29.056H133.313L132.025 27.434L131.242 28.056ZM130.218 28.056H129.218V29.056H130.218V28.056ZM130.218 8.6V7.6H129.218V8.6H130.218ZM132.554 8.6H133.554V7.6H132.554V8.6ZM132.554 31V32H133.554V31H132.554ZM130.602 31L129.818 31.6212L130.118 32H130.602V31ZM115.178 11.544V10.544H113.109L114.394 12.1652L115.178 11.544ZM116.202 11.544H117.202V10.544H116.202V11.544ZM116.202 31V32H117.202V31H116.202ZM113.834 31H114.834V8.6H113.834H112.834V31H113.834ZM113.834 8.6V9.6H115.786V8.6V7.6H113.834V8.6ZM115.786 8.6L115.003 9.22202L130.459 28.678L131.242 28.056L132.025 27.434L116.569 7.97798L115.786 8.6ZM131.242 28.056V27.056H130.218V28.056V29.056H131.242V28.056ZM130.218 28.056H131.218V8.6H130.218H129.218V28.056H130.218ZM130.218 8.6V9.6H132.554V8.6V7.6H130.218V8.6ZM132.554 8.6H131.554V31H132.554H133.554V8.6H132.554ZM132.554 31V30H130.602V31V32H132.554V31ZM130.602 31L131.385 30.3788L115.961 10.9228L115.178 11.544L114.394 12.1652L129.818 31.6212L130.602 31ZM115.178 11.544V12.544H116.202V11.544V10.544H115.178V11.544ZM116.202 11.544H115.202V31H116.202H117.202V11.544H116.202ZM116.202 31V30H113.834V31V32H116.202V31ZM148.761 30.36L148.387 31.2876L148.399 31.2923L148.761 30.36ZM145.049 27.96L144.349 28.6744L144.349 28.6744L145.049 27.96ZM142.585 24.344L141.661 24.7276L141.666 24.7396L142.585 24.344ZM142.585 15.256L141.666 14.8603L141.661 14.8724L142.585 15.256ZM145.049 11.64L144.356 10.9186L144.349 10.9256L145.049 11.64ZM148.793 9.272L149.155 10.2043L149.167 10.1995L148.793 9.272ZM158.041 9.24L157.679 10.1723L157.691 10.1769L158.041 9.24ZM161.657 11.672L162.364 12.3791L163.036 11.7075L162.399 11.0022L161.657 11.672ZM160.153 13.176L159.438 13.8749L160.145 14.5984L160.86 13.8831L160.153 13.176ZM157.113 11.16L156.754 12.0933L156.762 12.0964L156.77 12.0993L157.113 11.16ZM149.785 11.224L150.147 12.156L150.155 12.1531L150.162 12.1501L149.785 11.224ZM146.777 13.176L147.475 13.8921L147.484 13.8831L146.777 13.176ZM144.761 16.12L143.844 15.7219L143.84 15.7304L144.761 16.12ZM144.761 23.512L143.837 23.8954L143.842 23.906L143.846 23.9165L144.761 23.512ZM146.777 26.456L146.07 27.1632L146.079 27.172L146.777 26.456ZM149.785 28.408L149.408 29.3341L149.415 29.3371L149.422 29.34L149.785 28.408ZM157.113 28.44L157.472 29.3733L157.472 29.3733L157.113 28.44ZM160.153 26.392L160.86 25.6849L160.145 24.9696L159.438 25.6931L160.153 26.392ZM161.657 27.896L162.399 28.5658L163.036 27.8605L162.364 27.1889L161.657 27.896ZM158.041 30.36L158.403 31.2923L158.403 31.2923L158.041 30.36ZM153.433 31.192V30.192C151.859 30.192 150.426 29.9334 149.123 29.4277L148.761 30.36L148.399 31.2923C149.955 31.8959 151.636 32.192 153.433 32.192V31.192ZM148.761 30.36L149.135 29.4325C147.82 28.9028 146.695 28.1731 145.749 27.2456L145.049 27.96L144.349 28.6744C145.493 29.7949 146.843 30.6652 148.387 31.2875L148.761 30.36ZM145.049 27.96L145.749 27.2456C144.799 26.3156 144.051 25.2195 143.503 23.9484L142.585 24.344L141.666 24.7396C142.314 26.2419 143.208 27.5564 144.349 28.6744L145.049 27.96ZM142.585 24.344L143.508 23.9604C142.987 22.7063 142.721 21.3235 142.721 19.8H141.721H140.721C140.721 21.5619 141.03 23.2084 141.661 24.7276L142.585 24.344ZM141.721 19.8H142.721C142.721 18.2765 142.987 16.8937 143.508 15.6396L142.585 15.256L141.661 14.8724C141.03 16.3916 140.721 18.0381 140.721 19.8H141.721ZM142.585 15.256L143.503 15.6516C144.051 14.3805 144.799 13.2844 145.749 12.3544L145.049 11.64L144.349 10.9256C143.208 12.0436 142.314 13.3581 141.666 14.8604L142.585 15.256ZM145.049 11.64L145.741 12.3614C146.709 11.4322 147.844 10.713 149.155 10.2043L148.793 9.272L148.431 8.33973C146.883 8.94037 145.522 9.79979 144.356 10.9186L145.049 11.64ZM148.793 9.272L149.167 10.1995C150.467 9.6757 151.896 9.408 153.465 9.408V8.408V7.408C151.664 7.408 149.978 7.7163 148.419 8.34448L148.793 9.272ZM153.465 8.408V9.408C154.97 9.408 156.372 9.6649 157.679 10.1723L158.041 9.24L158.403 8.30773C156.851 7.70577 155.203 7.408 153.465 7.408V8.408ZM158.041 9.24L157.691 10.1769C158.976 10.6565 160.045 11.3781 160.914 12.3418L161.657 11.672L162.399 11.0022C161.306 9.78992 159.964 8.89021 158.39 8.3031L158.041 9.24ZM161.657 11.672L160.95 10.9649L159.446 12.4689L160.153 13.176L160.86 13.8831L162.364 12.3791L161.657 11.672ZM160.153 13.176L160.868 12.4771C159.858 11.4435 158.721 10.6828 157.456 10.2207L157.113 11.16L156.77 12.0993C157.724 12.4478 158.613 13.0312 159.438 13.8749L160.153 13.176ZM157.113 11.16L157.472 10.2267C156.239 9.75264 154.922 9.52 153.529 9.52V10.52V11.52C154.696 11.52 155.768 11.714 156.754 12.0933L157.113 11.16ZM153.529 10.52V9.52C152.066 9.52 150.689 9.77596 149.408 10.2979L149.785 11.224L150.162 12.1501C151.185 11.7334 152.304 11.52 153.529 11.52V10.52ZM149.785 11.224L149.422 10.292C148.144 10.789 147.024 11.5151 146.07 12.4689L146.777 13.176L147.484 13.8831C148.237 13.1302 149.121 12.555 150.147 12.156L149.785 11.224ZM146.777 13.176L146.079 12.46C145.129 13.3858 144.384 14.4762 143.844 15.7219L144.761 16.12L145.678 16.5181C146.119 15.5025 146.718 14.6302 147.475 13.892L146.777 13.176ZM144.761 16.12L143.84 15.7304C143.313 16.9765 143.057 18.3377 143.057 19.8H144.057H145.057C145.057 18.5743 145.27 17.4822 145.682 16.5096L144.761 16.12ZM144.057 19.8H143.057C143.057 21.2626 143.313 22.6318 143.837 23.8954L144.761 23.512L145.684 23.1286C145.27 22.1309 145.057 21.0254 145.057 19.8H144.057ZM144.761 23.512L143.846 23.9165C144.387 25.138 145.129 26.2221 146.07 27.1631L146.777 26.456L147.484 25.7489C146.718 24.9832 146.116 24.1046 145.675 23.1075L144.761 23.512ZM146.777 26.456L146.079 27.172C147.029 28.098 148.141 28.8182 149.408 29.3341L149.785 28.408L150.162 27.4819C149.124 27.0591 148.232 26.478 147.475 25.74L146.777 26.456ZM149.785 28.408L149.422 29.34C150.7 29.8367 152.072 30.08 153.529 30.08V29.08V28.08C152.298 28.08 151.174 27.8753 150.147 27.476L149.785 28.408ZM153.529 29.08V30.08C154.922 30.08 156.239 29.8474 157.472 29.3733L157.113 28.44L156.754 27.5067C155.768 27.886 154.696 28.08 153.529 28.08V29.08ZM157.113 28.44L157.472 29.3733C158.729 28.8899 159.861 28.1216 160.868 27.0909L160.153 26.392L159.438 25.6931C158.61 26.5397 157.716 27.1368 156.754 27.5067L157.113 28.44ZM160.153 26.392L159.446 27.0991L160.95 28.6031L161.657 27.896L162.364 27.1889L160.86 25.6849L160.153 26.392ZM161.657 27.896L160.914 27.2262C160.043 28.1928 158.97 28.9269 157.679 29.4277L158.041 30.36L158.403 31.2923C159.971 30.6838 161.309 29.7752 162.399 28.5658L161.657 27.896ZM158.041 30.36L157.679 29.4277C156.373 29.9345 154.961 30.192 153.433 30.192V31.192V32.192C155.19 32.192 156.85 31.8948 158.403 31.2923L158.041 30.36ZM186.929 8.6V7.6H185.929V8.6H186.929ZM189.265 8.6H190.265V7.6H189.265V8.6ZM189.265 31V32H190.265V31H189.265ZM186.929 31H185.929V32H186.929V31ZM172.913 31V32H173.913V31H172.913ZM170.545 31H169.545V32H170.545V31ZM170.545 8.6V7.6H169.545V8.6H170.545ZM172.913 8.6H173.913V7.6H172.913V8.6ZM187.153 20.664V21.664H188.153V20.664H187.153ZM172.657 20.664H171.657V21.664H172.657V20.664ZM172.657 18.584V17.584H171.657V18.584H172.657ZM187.153 18.584H188.153V17.584H187.153V18.584ZM186.929 8.6V9.6H189.265V8.6V7.6H186.929V8.6ZM189.265 8.6H188.265V31H189.265H190.265V8.6H189.265ZM189.265 31V30H186.929V31V32H189.265V31ZM186.929 31H187.929V8.6H186.929H185.929V31H186.929ZM172.913 31V30H170.545V31V32H172.913V31ZM170.545 31H171.545V8.6H170.545H169.545V31H170.545ZM170.545 8.6V9.6H172.913V8.6V7.6H170.545V8.6ZM172.913 8.6H171.913V31H172.913H173.913V8.6H172.913ZM187.153 20.664V19.664H172.657V20.664V21.664H187.153V20.664ZM172.657 20.664H173.657V18.584H172.657H171.657V20.664H172.657ZM172.657 18.584V19.584H187.153V18.584V17.584H172.657V18.584ZM187.153 18.584H186.153V20.664H187.153H188.153V18.584H187.153Z" fill="black"/>
</g>
<defs>
<clipPath id="clip0_1_2">
<rect width="229" height="40" fill="white"/>
</clipPath>
</defs>
</svg>
